<svg width="24" height="24" viewBox="0 0 24 24" fill="none" xmlns="http://www.w3.org/2000/svg">
<path d="M13 11.15H7" stroke="#0777A2" stroke-width="1.18519" stroke-linecap="round" stroke-linejoin="round"/>
<path d="M2 11.15V6.53003C2 4.49003 3.65 2.84003 5.69 2.84003H11.31C13.35 2.84003 15 4.11002 15 6.15002" stroke="#0777A2" stroke-width="1.18519" stroke-linecap="round" stroke-linejoin="round"/>
<path d="M17.48 12.2C16.98 12.68 16.74 13.42 16.94 14.18C17.19 15.11 18.11 15.7 19.07 15.7H20V17.15C20 19.36 18.21 21.15 16 21.15H6C3.79 21.15 2 19.36 2 17.15V10.15C2 7.94002 3.79 6.15002 6 6.15002H16C18.2 6.15002 20 7.95002 20 10.15V11.6H18.92C18.36 11.6 17.85 11.82 17.48 12.2Z" stroke="#0777A2" stroke-width="1.18519" stroke-linecap="round" stroke-linejoin="round"/>
<path d="M22.0001 12.62V14.68C22.0001 15.24 21.5401 15.7 20.9701 15.7H19.0401C17.9601 15.7 16.9701 14.91 16.8801 13.83C16.8201 13.2 17.0601 12.61 17.4801 12.2C17.8501 11.82 18.3601 11.6 18.9201 11.6H20.9701C21.5401 11.6 22.0001 12.06 22.0001 12.62Z" stroke="#0777A2" stroke-width="1.18519" stroke-linecap="round" stroke-linejoin="round"/>
</svg>
