<svg width="54" height="59" viewBox="0 0 54 59" fill="none" xmlns="http://www.w3.org/2000/svg">
<rect x="8.49829" y="2.99683" width="33.621" height="46.3222" rx="3.73566" transform="rotate(-4.63313 8.49829 2.99683)" fill="white"/>
<path fill-rule="evenodd" clip-rule="evenodd" d="M7.40984 7.17242L2.95423 8.58637C1.19109 9.14589 0.215361 11.0288 0.77488 12.7919L10.2969 42.7975L7.40984 7.17242ZM12.7019 47.8039C13.5099 48.3189 14.5319 48.4853 15.5166 48.1728L16.2145 47.9513L14.4739 48.0924C13.8465 48.1433 13.2427 48.036 12.7019 47.8039Z" fill="white"/>
<path fill-rule="evenodd" clip-rule="evenodd" d="M43.8453 4.10439L47.7987 4.76864C49.623 5.07514 50.9129 6.81122 50.6798 8.64627L46.7325 39.7302L43.8453 4.10439ZM45.4592 44.8496C44.753 45.5953 43.6999 45.982 42.5887 45.7953L42.1999 45.73L43.4625 45.6277C44.2183 45.5664 44.9033 45.2842 45.4592 44.8496Z" fill="white"/>
<circle cx="40.2011" cy="52.7761" r="3.57805" fill="white"/>
<circle cx="21.4162" cy="54.5651" r="3.57805" fill="white"/>
</svg>
